<!-- This Source Code Form is subject to the terms of the Mozilla Public
   - License, v. 2.0. If a copy of the MPL was not distributed with this
   - file, You can obtain one at http://mozilla.org/MPL/2.0/. -->
<svg xmlns="http://www.w3.org/2000/svg" width="16" height="16" viewBox="0 0 16 16" fill="context-fill" fill-opacity="context-fill-opacity">
  <path d="M8 1a3 3 0 0 0-3 3v2H4a1 1 0 0 0-1 1v7a1 1 0 0 0 1 1h8a1 1 0 0 0 1-1V7a1 1 0 0 0-1-1h-1V4a3 3 0 0 0-3-3zm0 1.5A1.5 1.5 0 0 1 9.5 4v2h-3V4A1.5 1.5 0 0 1 8 2.5zM8 9a1 1 0 0 1 .5.87V12a.5.5 0 0 1-1 0V9.87A1 1 0 0 1 8 9z"/>
</svg>
